<?xml version="1.0" standalone="no"?><!DOCTYPE svg PUBLIC "-//W3C//DTD SVG 1.1//EN" "http://www.w3.org/Graphics/SVG/1.1/DTD/svg11.dtd"><svg t="1575440473357" class="icon" viewBox="0 0 1024 1024" version="1.1" xmlns="http://www.w3.org/2000/svg" p-id="1173" xmlns:xlink="http://www.w3.org/1999/xlink" width="200" height="200"><defs><style type="text/css"></style></defs><path d="M512 512m-512 0a512 512 0 1 0 1024 0 512 512 0 1 0-1024 0Z" fill="#B3DFFF" p-id="1174"></path><path d="M302.545455 291.84a23.272727 23.272727 0 0 0-23.272728 23.272727V670.254545a207.825455 207.825455 0 0 0 42.821818 134.516364c41.192727 48.174545 111.476364 79.592727 206.429091 79.592727a222.021818 222.021818 0 0 0 204.567273-125.672727c38.865455-79.592727 52.596364-155.229091 107.752727-221.789091 24.901818-30.254545 43.752727-42.589091 43.752728-57.716363s-49.105455-29.090909-93.090909-6.749091a390.981818 390.981818 0 0 0-89.134546 77.265454 14.429091 14.429091 0 0 1-24.901818-9.541818V229.701818a34.909091 34.909091 0 0 0-35.141818-34.676363 34.909091 34.909091 0 0 0-35.141818 34.676363v256a23.272727 23.272727 0 0 1-23.272728 23.272727 23.272727 23.272727 0 0 1-23.272727-23.272727V174.312727A34.909091 34.909091 0 0 0 525.265455 139.636364a34.909091 34.909091 0 0 0-35.141819 34.676363v320.698182a23.272727 23.272727 0 0 1-23.272727 23.272727 23.272727 23.272727 0 0 1-23.272727-23.272727V220.392727A34.909091 34.909091 0 0 0 408.203636 186.181818 34.909091 34.909091 0 0 0 372.363636 220.392727v293.003637a23.272727 23.272727 0 0 1-23.272727 23.272727 23.272727 23.272727 0 0 1-23.272727-23.272727v-198.516364a23.272727 23.272727 0 0 0-23.272727-23.272727z" fill="#439DFF" p-id="1175"></path></svg>